<?xml version="1.0" encoding="UTF-8" standalone="no"?>
<svg
   xmlns:dc="http://purl.org/dc/elements/1.1/"
   xmlns:cc="http://creativecommons.org/ns#"
   xmlns:rdf="http://www.w3.org/1999/02/22-rdf-syntax-ns#"
   xmlns:svg="http://www.w3.org/2000/svg"
   xmlns="http://www.w3.org/2000/svg"
   viewBox="0 0 374.22177 195.46334"
   height="195.46335"
   width="374.22177"
   version="1.1"
   id="svg">
  <metadata
     id="metadata9">
    <rdf:RDF>
      <cc:Work
         rdf:about="">
        <dc:format>image/svg+xml</dc:format>
        <dc:type
           rdf:resource="http://purl.org/dc/dcmitype/StillImage" />
        <dc:title></dc:title>
      </cc:Work>
    </rdf:RDF>
  </metadata>
  <defs
     id="defs7" />
  <g
     transform="translate(-7.629493,-50.192293)"
     id="svgg">
    <path
       fill-rule="evenodd"
       fill="#ffffff"
       stroke="none"
       d="m 144.734,59.211 c -3.031,5.073 -5.588,9.644 -5.682,10.16 -4.373,24.043 -5.771,26.835 -16.463,32.89 l -7.191,4.072 -2.374,9.183 c -5.359,20.733 -4.453,19.447 -21.185,30.09 l -8.92,5.674 -1.463,2.972 c -4.887,9.93 -8.788,13.799 -20.331,20.163 -2.047,1.128 -4.168,2.364 -4.713,2.746 -3.604,2.524 -9.641,14.338 -13.881,27.162 -0.703,2.128 -1.331,3.939 -1.396,4.026 -0.064,0.087 -3.031,-1.406 -6.592,-3.318 -3.562,-1.912 -6.713,-3.417 -7.002,-3.344 -1.127,0.285 -20.346,12.391 -19.904,12.538 0.257,0.086 4.786,-2.004 10.063,-4.645 5.278,-2.641 9.819,-4.802 10.093,-4.802 0.273,0 3.705,1.972 7.626,4.381 3.921,2.409 7.259,4.454 7.417,4.544 0.158,0.09 1.669,-2.956 3.357,-6.77 10.19,-23.018 11.2,-24.39 22.34,-30.326 12.465,-6.642 13.566,-7.626 17.45,-15.603 l 3.034,-6.232 5.103,-2.555 c 14.17,-7.093 18.594,-12.349 24.895,-29.578 3.533,-9.66 8.31,-16.785 13.033,-19.439 2.913,-1.638 7.301,-9.886 13.744,-25.839 1.87,-4.631 3.881,-9.58 4.469,-10.998 l 1.069,-2.58 5.806,6.918 c 8.91,10.616 9.138,11.087 10.037,20.767 0.934,10.067 2.735,19.111 3.805,19.113 0.194,0 0.289,-3.327 0.211,-7.395 -0.442,-23.052 5.391,-26.658 16.861,-10.425 5.892,8.34 13.92,15.607 23.668,21.425 2.367,1.413 2.144,0.503 -0.309,-1.258 -7.512,-5.395 -10.291,-9.043 -21.6,-28.35 l -7.367,-12.577 -6.797,-5.296 c -5.467,-4.26 -22.58,-15.622 -24.868,-16.51 -0.306,-0.119 -2.865,3.698 -6.043,9.016 m 11.866,66.215 c -5.27,2.626 -6.653,8.964 -2.923,13.396 1.337,1.589 2.585,2.308 7.828,4.509 4.282,1.798 5.808,3.287 5.328,5.199 -0.94,3.745 -8.594,3.127 -11.551,-0.933 l -0.888,-1.219 -2.112,1.765 c -2.532,2.117 -2.522,2.026 -0.489,4.276 5.533,6.124 17.277,5.511 20.26,-1.058 2.623,-5.777 -0.194,-10.282 -8.418,-13.462 -6.211,-2.401 -7.693,-4.579 -4.783,-7.028 2.315,-1.948 7.44,-0.868 9.027,1.902 0.398,0.695 0.706,0.535 2.613,-1.359 l 2.163,-2.147 -1.09,-1.16 c -3.533,-3.76 -10.349,-4.982 -14.965,-2.681 m 93.908,-0.345 c -3.701,1.681 -6.037,5.681 -5.481,9.387 0.61,4.068 2.531,5.663 11.725,9.735 5.41,2.397 4.452,6.878 -1.469,6.878 -2.299,0 -3.331,-0.507 -5.723,-2.808 l -1.862,-1.791 -2.006,1.667 c -2.619,2.177 -2.615,2.12 -0.331,4.401 8.855,8.843 24.775,2.213 20.224,-8.424 -1.097,-2.563 -9.108,-7.607 -12.082,-7.607 -0.591,0 -2.764,-2.69 -2.764,-3.423 0,-3.785 6.318,-4.321 10.034,-0.851 l 1.159,1.083 2.026,-2.082 2.026,-2.082 -1.951,-1.746 c -3.468,-3.105 -9.53,-4.152 -13.525,-2.337 m 30.493,-0.3 c -9.821,3.433 -7.937,14.038 3.266,18.379 5.995,2.323 7.251,4.072 4.733,6.591 -2.425,2.424 -7.286,1.577 -10.026,-1.747 l -1.314,-1.594 -2.084,1.708 c -2.555,2.094 -2.562,2.306 -0.149,4.664 7.918,7.741 22.159,3.3 20.574,-6.417 -0.669,-4.107 -2.522,-5.828 -9.119,-8.472 -5.022,-2.013 -6.108,-2.837 -6.108,-4.63 0,-3.793 5.484,-4.734 9.014,-1.548 l 1.68,1.516 1.934,-1.717 c 2.347,-2.085 2.398,-2.724 0.344,-4.291 -3.67,-2.799 -8.872,-3.796 -12.745,-2.442 m -102.219,2.068 c 0.461,1.189 3.269,8.555 6.239,16.37 2.971,7.815 5.546,14.061 5.723,13.879 0.177,-0.181 2.304,-5.244 4.726,-11.25 2.422,-6.007 4.459,-10.983 4.526,-11.057 0.067,-0.074 2.109,4.841 4.537,10.922 2.428,6.081 4.563,11.21 4.743,11.399 0.181,0.189 2.723,-5.955 5.649,-13.652 2.926,-7.697 5.73,-15.07 6.231,-16.384 l 0.911,-2.389 h -3.092 -3.091 l -3.118,8.646 c -1.716,4.756 -3.244,8.647 -3.398,8.647 -0.154,0 -1.71,-3.891 -3.458,-8.645 l -3.18,-8.645 -2.502,0.005 -2.503,0.005 -3.113,8.338 c -1.712,4.585 -3.255,8.569 -3.431,8.852 -0.175,0.284 -1.719,-3.471 -3.432,-8.344 l -3.114,-8.859 h -3.346 -3.346 l 0.839,2.162 m 50.114,13.538 v 15.699 h 2.958 2.958 v -15.699 -15.7 h -2.958 -2.958 v 15.7 m -68.768,29.069 c -12.962,4.633 -14.151,24.143 -1.839,30.189 7.786,3.824 17.818,0.543 21.555,-7.049 6.509,-13.221 -6.091,-28.008 -19.716,-23.14 m 66.631,0.329 c -10.187,3.916 -13.212,17.595 -5.805,26.248 4.365,5.1 14.319,6.658 20.958,3.279 l 3.139,-1.597 0.125,-7.39 0.125,-7.39 h -6.382 -6.382 v 2.731 2.73 h 3.413 3.413 v 2.981 c 0,8.715 -14.889,4.352 -16.557,-4.852 -1.686,-9.301 10.48,-16.311 17.257,-9.944 0.937,0.88 0.948,0.875 2.964,-1.195 l 2.024,-2.079 -1.583,-1.336 c -3.739,-3.154 -11.537,-4.175 -16.709,-2.186 m 121.31,-0.329 c -12.974,4.637 -14.211,24.131 -1.913,30.148 5.298,2.592 12.61,1.915 17.258,-1.598 2.708,-2.047 2.714,-2.142 0.298,-4.325 l -1.931,-1.745 -1.557,1.367 c -6.603,5.799 -16.652,0.8 -16.652,-8.283 0,-9.274 10.144,-14.313 16.732,-8.312 l 1.032,0.94 2.07,-2.021 2.069,-2.021 -1.689,-1.471 c -3.467,-3.018 -11.118,-4.322 -15.717,-2.679 m -158.763,15.527 v 15.7 h 2.958 2.958 v -5.916 c 0,-5.528 0.057,-5.916 0.873,-5.916 0.625,0 1.927,1.679 4.588,5.916 l 3.715,5.916 h 3.375 c 1.857,0 3.376,-0.096 3.376,-0.213 0,-0.117 -1.724,-2.864 -3.832,-6.103 -3.69,-5.672 -3.793,-5.9 -2.766,-6.158 4.219,-1.059 6.877,-7.547 5.163,-12.601 -1.7,-5.013 -4.519,-6.314 -13.696,-6.32 l -6.712,-0.005 v 15.7 m 71.969,-12.173 c -0.749,1.94 -3.426,8.822 -5.949,15.294 -5.431,13.934 -5.248,12.579 -1.704,12.579 h 2.883 l 1.33,-3.527 1.33,-3.527 6.406,-0.126 6.407,-0.125 1.38,3.538 1.38,3.539 3.063,0.136 c 1.775,0.078 2.996,-0.044 2.904,-0.292 -0.087,-0.234 -2.821,-7.305 -6.075,-15.712 l -5.916,-15.286 -3.038,-0.009 -3.039,-0.009 -1.362,3.527 m 25.869,12.173 v 15.7 h 2.95 2.949 l 0.122,-10.12 0.123,-10.12 7.281,10.096 7.281,10.096 2.616,0.024 2.617,0.024 v -15.7 -15.7 h -2.722 -2.722 l -0.122,10.269 -0.122,10.268 -7.447,-10.268 -7.448,-10.269 h -2.678 -2.678 v 15.7 m 36.405,0 v 15.7 h 2.731 2.73 v -15.7 -15.7 h -2.73 -2.731 v 15.7 M 169.451,174.917 c 6.401,2.675 8.197,11.872 3.384,17.339 -5.946,6.756 -16.346,2.912 -17.087,-6.315 -0.654,-8.143 6.611,-13.987 13.703,-11.024 m 33.784,1.343 c 2.889,3.358 0.675,6.791 -4.551,7.055 l -3.462,0.175 v -4.423 -4.422 l 3.462,0.174 c 3.115,0.158 3.571,0.302 4.551,1.441 m 64.554,6.28 1.988,5.173 -3.888,0.133 c -4.864,0.165 -4.669,0.625 -2.339,-5.523 1.088,-2.873 2.04,-5.163 2.115,-5.09 0.075,0.074 1.031,2.462 2.124,5.307 m 100.129,30.829 c -6.134,1.61 -9.125,7.35 -6.575,12.617 1.251,2.585 3.33,4.072 8.791,6.287 5.35,2.17 6.509,3.402 5.278,5.611 -1.753,3.147 -6.561,3.056 -10.03,-0.189 l -2.204,-2.062 -1.271,0.906 c -2.777,1.979 -3.08,2.605 -2,4.122 4.384,6.157 16.521,6.766 20.323,1.021 3.762,-5.684 0.847,-11.454 -7.395,-14.64 -6.032,-2.332 -7.595,-4.13 -5.807,-6.683 1.566,-2.236 5.461,-2.069 8.489,0.364 l 1.812,1.456 2.004,-1.966 2.004,-1.967 -1.235,-1.288 c -2.694,-2.812 -8.561,-4.541 -12.184,-3.589 m -216.382,15.926 v 15.984 h 2.73 2.731 v -5.637 -5.637 l 4.754,-0.176 c 7.432,-0.275 10.919,-3.455 10.893,-9.932 -0.029,-7.468 -3.598,-10.04 -14.396,-10.376 l -6.712,-0.209 v 15.983 m 35.343,-15.529 c -0.289,0.481 -12.135,31.03 -12.135,31.295 0,0.12 1.316,0.218 2.924,0.218 h 2.925 l 1.361,-3.527 1.362,-3.527 h 6.505 6.505 l 1.328,3.527 1.327,3.527 h 2.899 c 1.594,0 2.898,-0.144 2.898,-0.321 0,-0.176 -2.713,-7.341 -6.029,-15.923 l -6.03,-15.602 -2.817,-0.004 c -1.55,-0.003 -2.91,0.149 -3.023,0.337 m 24.27,15.529 v 15.984 h 2.958 2.958 v -5.916 c 0,-8.225 0.612,-8.225 5.688,-0.006 l 3.641,5.895 3.299,0.013 c 4.033,0.017 4.055,0.447 -0.323,-6.386 l -3.623,-5.653 1.234,-0.626 c 3.573,-1.814 5.101,-4.491 5.101,-8.937 0,-7.429 -3.329,-9.804 -14.221,-10.142 l -6.712,-0.209 v 15.983 m 26.849,-12.913 v 2.958 h 4.323 4.323 v 12.969 12.97 h 2.73 2.731 v -12.97 -12.969 h 4.323 4.323 v -2.958 -2.958 h -11.377 -11.376 v 2.958 m 29.579,12.97 v 15.927 h 2.949 2.95 l 0.122,-10.269 0.122,-10.268 7.447,10.268 7.448,10.269 h 2.678 2.677 v -15.927 -15.928 h -2.957 -2.958 v 10.534 10.534 l -7.617,-10.534 -7.617,-10.534 h -2.622 -2.622 v 15.928 m 35.95,0 v 15.927 h 9.784 9.783 v -2.731 -2.73 h -7.053 -7.054 v -4.096 -4.095 h 6.371 6.371 v -2.731 -2.73 h -6.371 -6.371 v -3.413 -3.413 h 6.826 6.826 v -2.958 -2.958 h -9.556 -9.556 v 15.928 m 27.303,-0.057 v 15.984 h 2.958 2.958 v -5.916 c 0,-8.234 0.615,-8.234 5.689,0 l 3.64,5.908 3.299,0.004 c 4.022,0.005 4.047,0.497 -0.324,-6.345 l -3.62,-5.666 1.644,-0.932 c 3.474,-1.97 4.462,-3.889 4.462,-8.669 0,-7.624 -3.061,-9.85 -13.971,-10.16 l -6.735,-0.191 v 15.983 m -166.368,-9.437 c 5.081,2.316 2.4,8.232 -3.86,8.516 l -3.605,0.164 v -4.599 -4.599 h 3.164 c 1.74,0 3.675,0.233 4.301,0.518 m 59.857,0.151 c 4.56,2.358 1.989,7.61 -3.87,7.906 l -3.384,0.171 v -4.373 -4.373 h 2.98 c 1.732,0 3.523,0.28 4.274,0.669 m 119.699,0.009 c 4.493,2.323 1.911,7.604 -3.86,7.896 l -3.412,0.172 v -4.373 -4.373 h 2.981 c 1.749,0 3.521,0.28 4.291,0.678 m -152.051,6.983 c 1.039,2.712 1.89,5.066 1.89,5.233 0,0.167 -1.865,0.303 -4.145,0.303 -3.125,0 -4.092,-0.14 -3.931,-0.569 2.464,-6.599 3.805,-9.896 4.024,-9.897 0.15,0 1.123,2.218 2.162,4.93"
       id="path0" />
  </g>
</svg>
